<?xml version="1.0" encoding="UTF-8"?>
<svg width="24px" height="22px" viewBox="0 0 24 22" version="1.1" xmlns="http://www.w3.org/2000/svg" xmlns:xlink="http://www.w3.org/1999/xlink">
    <!-- Generator: Sketch 61.2 (89653) - https://sketch.com -->
    <title>0482-bubble-heart</title>
    <desc>Created with Sketch.</desc>
    <g id="Symbols" stroke="none" stroke-width="1" fill="none" fill-rule="evenodd">
        <g id="icon/Sharable" transform="translate(0.000000, -1.000000)" fill="#000000" fill-rule="nonzero">
            <g id="0482-bubble-heart">
                <path d="M0.631578947,22.7368421 C0.347368421,22.7368421 0.0985263158,22.5473684 0.0227368421,22.2732632 C-0.0530526316,21.9991579 0.0631578947,21.7086316 0.306947368,21.5633684 C2.44294737,20.2825263 3.32842105,18.4193684 3.64294737,17.5477895 C1.32126316,15.7705263 -0.000222488652,13.3111579 -0.000222488652,10.7368421 C-0.000222488652,9.43705263 0.325894737,8.17768421 0.970105263,6.99284211 C1.584,5.86357895 2.46063158,4.85178947 3.57347368,3.98526316 C5.83073684,2.22947368 8.82315789,1.26189474 12,1.26189474 C15.1768421,1.26189474 18.1692632,2.22947368 20.4265263,3.98526316 C21.5393684,4.85052632 22.416,5.86231579 23.0298947,6.99284211 C23.6741053,8.17642105 24,9.43578947 24,10.7368421 C24,12.0378947 23.6741053,13.296 23.0298947,14.4808421 C22.416,15.6101053 21.5393684,16.6218947 20.4265263,17.4884211 C18.1692632,19.2442105 15.1768421,20.2117895 12,20.2117895 C10.6951579,20.2117895 9.41431579,20.0488421 8.19031579,19.7254737 C7.64842105,20.0867368 6.63536842,20.7271579 5.42526316,21.3296842 C3.54568421,22.2644211 1.93389474,22.7381053 0.632842105,22.7381053 L0.631578947,22.7368421 Z M12,2.52631579 C6.07957895,2.52631579 1.26315789,6.20968421 1.26315789,10.7368421 C1.26315789,13.0294737 2.53263158,15.2362105 4.74442105,16.7898947 C4.96168421,16.9427368 5.06021053,17.2143158 4.992,17.4707368 C4.84421053,18.0214737 4.34147368,19.5334737 2.99621053,20.9924211 C4.64084211,20.4164211 6.41178947,19.4172632 7.71915789,18.5178947 C7.87452632,18.4105263 8.06905263,18.3789474 8.25094737,18.4307368 C9.44842105,18.7730526 10.7103158,18.9473684 12,18.9473684 C17.9204211,18.9473684 22.7368421,15.264 22.7368421,10.7368421 C22.7368421,6.20968421 17.9204211,2.52631579 12,2.52631579 Z" id="Shape"></path>
                <path d="M12,15.1578947 C11.9027368,15.1578947 11.8054737,15.1351579 11.7170526,15.0909474 C11.664,15.0644211 10.392,14.4227368 9.10231579,13.4526316 C7.26442105,12.0694737 6.33347368,10.7305263 6.33347368,9.47494737 C6.33347368,8.54652632 6.70484211,7.71789474 7.37810526,7.14315789 C8.00210526,6.61010526 8.85852632,6.31705263 9.78947368,6.31705263 C10.5448421,6.31705263 11.3242105,6.66442105 12,7.28842105 C12.6757895,6.66442105 13.4551579,6.31705263 14.2105263,6.31705263 C15.1414737,6.31705263 15.9978947,6.61010526 16.6218947,7.14315789 C17.2964211,7.71915789 17.6665263,8.54652632 17.6665263,9.47494737 C17.6665263,10.7317895 16.7343158,12.0707368 14.8976842,13.4526316 C13.608,14.4227368 12.3372632,15.0644211 12.2842105,15.0909474 C12.1945263,15.1351579 12.0985263,15.1578947 12.0012632,15.1578947 L12,15.1578947 Z M9.78947368,7.57894737 C8.69810526,7.57894737 7.59663158,8.16505263 7.59663158,9.47368421 C7.59663158,10.2858947 8.39621053,11.3368421 9.84884211,12.432 C10.7014737,13.0762105 11.568,13.5738947 12,13.8113684 C12.4332632,13.5751579 13.2985263,13.0762105 14.1511579,12.432 C15.6037895,11.3368421 16.4033684,10.2858947 16.4033684,9.47368421 C16.4033684,8.16505263 15.3018947,7.57894737 14.2105263,7.57894737 C13.6547368,7.57894737 13.0117895,7.96294737 12.4913684,8.60715789 C12.3713684,8.75494737 12.1907368,8.84210526 12,8.84210526 C11.8092632,8.84210526 11.6286316,8.75621053 11.5086316,8.60715789 C10.9882105,7.96294737 10.3452632,7.57894737 9.78947368,7.57894737 Z" id="Shape"></path>
            </g>
        </g>
    </g>
</svg>