<?xml version="1.0" encoding="UTF-8"?>
<svg width="22px" height="24px" viewBox="0 0 22 24" version="1.1" xmlns="http://www.w3.org/2000/svg" xmlns:xlink="http://www.w3.org/1999/xlink">
    <!-- Generator: Sketch 61.2 (89653) - https://sketch.com -->
    <title>0297-man</title>
    <desc>Created with Sketch.</desc>
    <g id="Symbols" stroke="none" stroke-width="1" fill="none" fill-rule="evenodd">
        <g id="icon/portrait" transform="translate(-1.000000, 0.000000)" fill="#000000" fill-rule="nonzero">
            <g id="0297-man" transform="translate(1.000000, 0.000000)">
                <path d="M11,24 C17.0751322,24 22,18.627417 22,12 C22,5.372583 17.0751322,0 11,0 C4.92486775,0 0,5.372583 0,12 C0,18.627417 4.92486775,24 11,24 Z M11,23 C5.49751449,23 1,18.0936206 1,12 C1,5.90637944 5.49751449,1 11,1 C16.5024855,1 21,5.90637944 21,12 C21,18.0936206 16.5024855,23 11,23 Z M14.117,16.171 C13.86,16.109 13.514,15.712 13.38,15.154 C13.309,14.86 13.211,14.12 13.826,13.593 C14.265,13.217 14.576,12.755 14.79,12.254 C15.579,11.278 16.077,10.25 16.271,9.196 C16.438,8.287 16.382,7.333 16.104,6.362 C15.787,5.252 15.005,4.334 13.843,3.706 C12.86,3.175 11.656,2.896 10.539,2.942 C9.798,2.972 9.135,3.143 8.622,3.436 C8.146,3.708 7.807,4.08 7.624,4.524 C6.805,4.632 6.18,5.102 5.842,5.873 C5.47,6.722 5.452,7.912 5.791,9.224 C6.096,10.405 6.646,11.502 7.308,12.255 C7.468,12.752 7.734,13.216 8.175,13.594 C8.784,14.116 8.645,14.931 8.588,15.168 C8.455,15.722 8.125,16.113 7.884,16.171 C6.406,16.527 4.745,17.007 3.631,17.875 C3.23063381,18.1866798 2.90539195,18.5425817 2.65376743,18.9459628 C2.21594287,19.6478426 4.76155162,21.3305281 5.67006725,22 C6.93927751,22.9352625 8.98076727,23.7981281 10.9988389,23.7981281 C12.6932643,23.7981281 15.0551668,22.9352625 16.5294818,22 C17.3729066,21.4649559 19.7836528,19.6388226 19.340886,18.9346744 C19.0902883,18.5361397 18.7674808,18.1840165 18.371,17.875 C17.257,17.008 15.595,16.527 14.117,16.171 Z M6.758,6.274 C6.989,5.746 7.384,5.5 8,5.5 C8.238,5.5 8.444,5.332 8.49,5.098 C8.649,4.301 9.673,3.978 10.579,3.941 C12.397,3.867 14.614,4.787 15.142,6.637 C15.426,7.631 15.437,8.577 15.172,9.491 C15.12,8.833 14.986,8.253 14.842,7.862 C14.705,7.492 14.469,7 14,7 C11.432,7 9.364,6.657 8.854,6.146 C8.711,6.003 8.496,5.96 8.309,6.038 C8.122,6.116 8,6.298 8,6.5 C8,7.863 7.547,8.864 7.241,9.111 C7.12,9.208 7.052,9.356 7.055,9.511 C7.058,9.636 7.059,9.764 7.06,9.897 C6.547,8.607 6.38,7.137 6.759,6.274 L6.758,6.274 Z M3.38516547,19.6708072 C3.58682536,19.2850624 3.87090461,18.955242 4.245,18.664 C5.011,18.067 6.169,17.612 8.117,17.144 C8.777,16.985 9.343,16.302 9.56,15.402 C9.802,14.396 9.528,13.436 8.826,12.834 C8.072,12.188 8.066,11.065 8.06,9.979 C8.06,9.889 8.059,9.797 8.058,9.705 C8.445,9.264 8.817,8.437 8.949,7.351 C9.531,7.59 10.338,7.762 11.385,7.872 C12.126,7.95 12.963,7.994 13.816,7.999 C13.989,8.329 14.26,9.345 14.182,10.466 C14.131,11.196 13.915,12.199 13.174,12.835 C12.457,13.45 12.17,14.405 12.407,15.389 C12.621,16.278 13.214,16.983 13.883,17.144 C15.831,17.613 16.989,18.067 17.755,18.664 C18.1051036,18.9365639 18.3763668,19.2429165 18.5750166,19.597276 C18.7990818,19.9969728 17.6338091,20.6454219 17.1406158,21 C15.442543,22.2208182 12.8730763,23.4043234 10.9821992,23.4043234 C8.59129405,23.4043234 6.25150587,22.2208182 4.74475246,21 C4.28935088,20.6310196 3.1852256,20.0532617 3.38516547,19.6708072 Z" id="Shape"></path>
            </g>
        </g>
    </g>
</svg>