<?xml version="1.0" encoding="UTF-8"?>
<svg width="40px" height="40px" viewBox="0 0 40 40" version="1.1" xmlns="http://www.w3.org/2000/svg" xmlns:xlink="http://www.w3.org/1999/xlink">
    <!-- Generator: Sketch 61.1 (89650) - https://sketch.com -->
    <title>Twitter</title>
    <desc>Created with Sketch.</desc>
    <g id="Page-1" stroke="none" stroke-width="1" fill="none" fill-rule="evenodd">
        <g id="1-Home" transform="translate(-40.000000, -7547.000000)" fill="#FFFFFF">
            <g id="Group-3-Copy" transform="translate(0.000000, 7486.000000)">
                <path d="M67.7511717,76.4121827 C66.6852085,77.2990268 66.4656146,78.4812737 66.2417814,79.80656 C65.1838729,86.070625 58.5201726,89.4099056 52.8518517,86.6165056 C52.6687154,86.5264438 52.4955415,86.4154028 52.1775966,86.2344315 C53.0710217,86.0784657 53.8247629,86.0144688 54.5348398,85.8036181 C55.2249921,85.5991248 55.8704202,85.2441753 56.8032704,84.8387911 C55.2550909,84.4476049 54.2438143,83.8540445 53.7794028,82.4971836 C54.1026467,82.4433584 54.3620897,82.3999168 54.7849564,82.3295626 C53.4453487,81.6139419 52.6464593,80.6802657 52.5553151,79.1549362 C52.971187,79.2422431 53.2935831,79.3102663 53.8037786,79.4177048 C52.6108495,78.0508841 52.1881948,76.7150023 53.0538526,75.0811748 C54.8688939,77.0722829 56.9970048,78.2693635 59.7046232,78.4725854 C59.7243358,78.1348005 59.7334502,77.8273189 59.7612174,77.5213206 C59.9693653,75.2201879 62.3240649,73.8080184 64.4254684,74.7217751 C65.9142982,75.3691607 65.9142982,75.3691607 67.5313658,74.8476498 C67.3872308,75.1568267 67.3009618,75.4034902 67.1646694,75.6183671 C67.0156592,75.8533755 66.8204411,76.0591403 66.5603622,76.3837867 C67.0232899,76.3111015 67.3719694,76.2566406 67.7267959,76.2009082 C67.7393017,76.2966916 67.7759714,76.3914155 67.7511717,76.4121827 M60.0340141,61 C48.9947566,60.9554539 40.0342226,69.8976398 40,80.9936808 C39.9661824,92.0111031 48.8707581,100.967063 59.8915748,101 C70.9880623,101.032755 79.9640696,92.1420636 80,81.0826831 C80.0359251,70.0305075 71.1029464,61.0453038 60.0340141,61" id="Twitter"></path>
            </g>
        </g>
    </g>
</svg>