<?xml version="1.0" encoding="UTF-8"?>
<svg width="40px" height="40px" viewBox="0 0 40 40" version="1.1" xmlns="http://www.w3.org/2000/svg" xmlns:xlink="http://www.w3.org/1999/xlink">
    <!-- Generator: Sketch 61.1 (89650) - https://sketch.com -->
    <title>Pinterest</title>
    <desc>Created with Sketch.</desc>
    <g id="Page-1" stroke="none" stroke-width="1" fill="none" fill-rule="evenodd">
        <g id="1-Home" transform="translate(-184.000000, -7547.000000)" fill="#FFFFFF">
            <g id="Group-3-Copy" transform="translate(0.000000, 7486.000000)">
                <path d="M209.416171,83.4686084 C207.632143,85.5194949 205.085379,85.7495147 202.812428,84.112028 C202.224534,86.3736423 201.78054,88.6806246 199.759787,90.3887073 C199.759787,89.1612282 199.609528,87.9102171 199.794755,86.71157 C200.079589,84.8678074 200.621918,83.0649607 200.996399,81.2328581 C201.104695,80.7017985 201.091132,80.1156189 200.994916,79.5794713 C200.805874,78.5281641 200.832365,77.5281608 201.451837,76.6303415 C201.950932,75.906362 202.63144,75.4853303 203.541468,75.8260141 C204.433058,76.1599138 204.623795,76.9339253 204.467602,77.7429167 C204.261183,78.8141519 203.94583,79.8665191 203.635353,80.9144343 C203.401382,81.7030737 203.465597,82.3984332 204.149707,82.9138048 C204.888708,83.4703044 205.666491,83.3615485 206.437069,82.9428488 C208.559337,81.7899937 209.584231,76.3909937 207.486759,74.596839 C205.997526,73.3227199 204.299542,73.1473961 202.513183,73.6470797 C200.666212,74.1635113 199.512888,75.4361464 199.013157,77.283513 C198.695898,78.4562961 198.82793,79.5417353 199.436381,80.6479505 C199.674803,81.0810662 199.39124,81.8016537 199.345251,82.3912252 C198.885787,82.2228973 198.302979,82.1783774 197.987203,81.8650416 C196.60118,80.4874666 196.429517,78.7569119 196.836635,76.9453733 C197.553382,73.7547756 200.546895,71.5749932 204.275382,71.4825613 C207.572167,71.4007294 210.407792,73.275868 211.116274,76.2288138 C211.751005,78.8732998 211.235167,81.377442 209.416171,83.4686084 M203.947102,61 C192.843871,61.014009 183.946833,70.0155224 184,81.1817661 C184.052374,92.08937 193.081869,101.027707 204.020218,101 C215.149092,100.971951 224.028753,92.0141101 224,80.8442624 C223.971955,69.8497385 215.015153,60.9858131 203.947102,61" id="Pinterest"></path>
            </g>
        </g>
    </g>
</svg>