<?xml version="1.0" encoding="UTF-8"?>
<svg width="96px" height="76px" viewBox="0 0 96 76" version="1.1" xmlns="http://www.w3.org/2000/svg" xmlns:xlink="http://www.w3.org/1999/xlink">
    <!-- Generator: Sketch 61.2 (89653) - https://sketch.com -->
    <title>0261-camera2 copy</title>
    <desc>Created with Sketch.</desc>
    <g id="Page-1" stroke="none" stroke-width="1" fill="none" fill-rule="evenodd">
        <g id="7-MyFaith-home-page-Copy" transform="translate(-500.000000, -590.000000)" fill="#000000" fill-rule="nonzero">
            <g id="0261-camera2-copy" transform="translate(500.000000, 590.000000)">
                <path d="M47.5,61 C35.095,61 25,50.905 25,38.5 C25,26.095 35.095,16 47.5,16 C59.905,16 70,26.095 70,38.5 C70,50.905 59.905,61 47.5,61 Z M47.5,21 C37.85,21 30,28.85 30,38.5 C30,48.15 37.85,56 47.5,56 C57.15,56 65,48.15 65,38.5 C65,28.85 57.15,21 47.5,21 Z" id="Shape"></path>
                <path d="M87.5,76 L7.5,76 C3.365,76 0,72.635 0,68.5 L0,18.5 C0,14.365 3.365,11 7.5,11 L15,11 C17.075,11 20.3,9.665 21.77,8.195 L24.7,5.265 C27.135,2.83 31.565,0.995 35.005,0.995 L60.005,0.995 C63.445,0.995 67.875,2.83 70.31,5.265 L73.24,8.195 C74.705,9.66 77.935,11 80.01,11 L87.51,11 C91.645,11 95.01,14.365 95.01,18.5 L95.01,68.5 C95.01,72.635 91.645,76 87.51,76 L87.5,76 Z M7.5,16 C6.12,16 5,17.12 5,18.5 L5,68.5 C5,69.88 6.12,71 7.5,71 L87.5,71 C88.88,71 90,69.88 90,68.5 L90,18.5 C90,17.12 88.88,16 87.5,16 L80,16 C76.56,16 72.13,14.165 69.695,11.73 L66.765,8.8 C65.3,7.335 62.07,5.995 59.995,5.995 L34.995,5.995 C32.92,5.995 29.695,7.33 28.225,8.8 L25.295,11.73 C22.86,14.165 18.435,16 14.99,16 L7.49,16 L7.5,16 Z" id="Shape"></path>
            </g>
        </g>
    </g>
</svg>