<?xml version="1.0" encoding="UTF-8"?>
<svg width="40px" height="40px" viewBox="0 0 40 40" version="1.1" xmlns="http://www.w3.org/2000/svg" xmlns:xlink="http://www.w3.org/1999/xlink">
    <!-- Generator: Sketch 61.2 (89653) - https://sketch.com -->
    <title>Twitter</title>
    <desc>Created with Sketch.</desc>
    <g id="Page-1" stroke="none" stroke-width="1" fill="none" fill-rule="evenodd">
        <g id="7-MyFaith-home-page-Copy" transform="translate(-746.000000, -1111.000000)" fill="#0091FF">
            <path d="M773.751172,1126.41218 C772.685209,1127.29903 772.465615,1128.48127 772.241781,1129.80656 C771.183873,1136.07062 764.520173,1139.40991 758.851852,1136.61651 C758.668715,1136.52644 758.495541,1136.4154 758.177597,1136.23443 C759.071022,1136.07847 759.824763,1136.01447 760.53484,1135.80362 C761.224992,1135.59912 761.87042,1135.24418 762.80327,1134.83879 C761.255091,1134.4476 760.243814,1133.85404 759.779403,1132.49718 C760.102647,1132.44336 760.36209,1132.39992 760.784956,1132.32956 C759.445349,1131.61394 758.646459,1130.68027 758.555315,1129.15494 C758.971187,1129.24224 759.293583,1129.31027 759.803779,1129.4177 C758.610849,1128.05088 758.188195,1126.715 759.053853,1125.08117 C760.868894,1127.07228 762.997005,1128.26936 765.704623,1128.47259 C765.724336,1128.1348 765.73345,1127.82732 765.761217,1127.52132 C765.969365,1125.22019 768.324065,1123.80802 770.425468,1124.72178 C771.914298,1125.36916 771.914298,1125.36916 773.531366,1124.84765 C773.387231,1125.15683 773.300962,1125.40349 773.164669,1125.61837 C773.015659,1125.85338 772.820441,1126.05914 772.560362,1126.38379 C773.02329,1126.3111 773.371969,1126.25664 773.726796,1126.20091 C773.739302,1126.29669 773.775971,1126.39142 773.751172,1126.41218 M766.034014,1111 C754.994757,1110.95545 746.034223,1119.89764 746,1130.99368 C745.966182,1142.0111 754.870758,1150.96706 765.891575,1151 C776.988062,1151.03276 785.96407,1142.14206 786,1131.08268 C786.035925,1120.03051 777.102946,1111.0453 766.034014,1111" id="Twitter"></path>
        </g>
    </g>
</svg>