<?xml version="1.0" encoding="UTF-8"?>
<svg width="40px" height="40px" viewBox="0 0 40 40" version="1.1" xmlns="http://www.w3.org/2000/svg" xmlns:xlink="http://www.w3.org/1999/xlink">
    <!-- Generator: Sketch 61.2 (89653) - https://sketch.com -->
    <title>Group 3</title>
    <desc>Created with Sketch.</desc>
    <g id="Page-1" stroke="none" stroke-width="1" fill="none" fill-rule="evenodd">
        <g id="7-MyFaith-home-page-Copy" transform="translate(-746.000000, -919.000000)" fill="#000000">
            <g id="Group-3" transform="translate(746.000000, 919.000000)">
                <path d="M22.8450058,20.0625708 C22.8240275,21.6393377 21.5721073,22.8620153 19.9891953,22.8516321 C18.4276854,22.8412489 17.1516083,21.5662313 17.1537247,20.0180713 C17.1556345,18.4355831 18.5145655,17.1088613 20.0862466,17.1548441 C21.6373732,17.2004032 22.8659842,18.4953396 22.8450058,20.0625708 M24.690677,16.3691095 C24.1363399,16.3691095 23.6868946,15.9196642 23.6868946,15.3653272 C23.6868946,14.8109901 24.1363399,14.3615448 24.690677,14.3615448 C25.245014,14.3615448 25.6944593,14.8109901 25.6944593,15.3653272 C25.6944593,15.9196642 25.245014,16.3691095 24.690677,16.3691095 M19.9798715,24.4870959 C17.521802,24.467389 15.5597964,22.4780479 15.5638164,20.0098071 C15.5678487,17.5246141 17.515445,15.5717202 19.9936452,15.5672634 C22.4661241,15.5630322 24.4594913,17.5171975 24.4849196,19.9706051 C24.5105598,22.4483816 22.4572242,24.5068029 19.9798715,24.4870959 M24.0378052,13.0076995 C21.3650785,12.869539 18.67434,12.8744128 16.0014013,13.0138446 C14.0749953,13.1140746 13.0854104,14.1318425 12.9942923,16.0663008 C12.8701174,18.705547 12.8658794,21.360262 13.0021327,23.9984487 C13.1044816,25.9831279 14.2568077,26.9610581 16.2465725,27.0576857 C17.4787858,27.1176541 18.7160848,27.0687046 19.9510528,27.0687046 L19.9510528,27.0729427 C21.1860208,27.0729427 22.422896,27.1165946 23.6553212,27.0631951 C25.8544457,26.9684747 26.995329,25.878448 27.0561451,23.6973352 C27.1250134,21.2295181 27.1175968,18.7568274 27.0521189,16.2885865 C26.9987195,14.2797504 26.0072275,13.1096246 24.0378052,13.0076995 M28.5699768,24.5544809 C28.4127451,26.9068111 26.8662804,28.4257285 24.5056861,28.5787221 C21.5223102,28.772613 18.5058775,28.7872342 15.5241968,28.5823245 C13.005947,28.4092001 11.5008032,26.5908644 11.3571333,24.039134 C11.2819079,22.7024527 11.3439953,21.358143 11.3439953,20.0174356 L11.3469619,20.0174356 C11.3469619,18.6413405 11.275127,17.2605835 11.3624308,15.8904217 C11.5268672,13.3073297 13.2621371,11.4917487 15.8295483,11.3838903 C18.6118287,11.2669201 21.4068233,11.2679796 24.1893156,11.3826189 C26.6261948,11.4832726 28.4008786,13.0394849 28.5684935,15.4689475 C28.7763699,18.4853802 28.7717081,21.5372006 28.5699768,24.5544809 M19.9949166,-2.48689958e-14 C8.99738655,-0.027273551 -0.00741201091,9.00591995 0,20.0581209 C0.00763306964,31.0539557 8.95754887,39.9896741 19.9752097,40.001552 C31.065765,40.0131953 40.0008476,31.0993029 40,20.0237927 C39.9991524,8.95082529 31.0846243,0.0278211101 19.9949166,-2.48689958e-14" id="Instagram"></path>
            </g>
        </g>
    </g>
</svg>