<?xml version="1.0" encoding="UTF-8"?>
<svg width="40px" height="40px" viewBox="0 0 40 40" version="1.1" xmlns="http://www.w3.org/2000/svg" xmlns:xlink="http://www.w3.org/1999/xlink">
    <!-- Generator: Sketch 61.2 (89653) - https://sketch.com -->
    <title>Pinterest</title>
    <desc>Created with Sketch.</desc>
    <g id="Page-1" stroke="none" stroke-width="1" fill="none" fill-rule="evenodd">
        <g id="7-MyFaith-home-page-Copy" transform="translate(-746.000000, -1047.000000)" fill="#E02020">
            <path d="M771.416171,1069.46861 C769.632143,1071.51949 767.085379,1071.74951 764.812428,1070.11203 C764.224534,1072.37364 763.78054,1074.68062 761.759787,1076.38871 C761.759787,1075.16123 761.609528,1073.91022 761.794755,1072.71157 C762.079589,1070.86781 762.621918,1069.06496 762.996399,1067.23286 C763.104695,1066.7018 763.091132,1066.11562 762.994916,1065.57947 C762.805874,1064.52816 762.832365,1063.52816 763.451837,1062.63034 C763.950932,1061.90636 764.63144,1061.48533 765.541468,1061.82601 C766.433058,1062.15991 766.623795,1062.93393 766.467602,1063.74292 C766.261183,1064.81415 765.94583,1065.86652 765.635353,1066.91443 C765.401382,1067.70307 765.465597,1068.39843 766.149707,1068.9138 C766.888708,1069.4703 767.666491,1069.36155 768.437069,1068.94285 C770.559337,1067.78999 771.584231,1062.39099 769.486759,1060.59684 C767.997526,1059.32272 766.299542,1059.1474 764.513183,1059.64708 C762.666212,1060.16351 761.512888,1061.43615 761.013157,1063.28351 C760.695898,1064.4563 760.82793,1065.54174 761.436381,1066.64795 C761.674803,1067.08107 761.39124,1067.80165 761.345251,1068.39123 C760.885787,1068.2229 760.302979,1068.17838 759.987203,1067.86504 C758.60118,1066.48747 758.429517,1064.75691 758.836635,1062.94537 C759.553382,1059.75478 762.546895,1057.57499 766.275382,1057.48256 C769.572167,1057.40073 772.407792,1059.27587 773.116274,1062.22881 C773.751005,1064.8733 773.235167,1067.37744 771.416171,1069.46861 M765.947102,1047 C754.843871,1047.01401 745.946833,1056.01552 746,1067.18177 C746.052374,1078.08937 755.081869,1087.02771 766.020218,1087 C777.149092,1086.97195 786.028753,1078.01411 786,1066.84426 C785.971955,1055.84974 777.015153,1046.98581 765.947102,1047" id="Pinterest"></path>
        </g>
    </g>
</svg>