<?xml version="1.0" encoding="UTF-8"?>
<svg width="208px" height="156px" viewBox="0 0 208 156" version="1.1" xmlns="http://www.w3.org/2000/svg" xmlns:xlink="http://www.w3.org/1999/xlink">
    <!-- Generator: Sketch 61.2 (89653) - https://sketch.com -->
    <title>Group 12</title>
    <desc>Created with Sketch.</desc>
    <g id="Page-1" stroke="none" stroke-width="1" fill="none" fill-rule="evenodd">
        <g id="4-Media-Center-Page" transform="translate(-603.000000, -429.000000)" fill="#2E5D58" fill-rule="nonzero">
            <g id="Group-16-Copy" transform="translate(570.000000, 429.000000)">
                <g id="Group-12" transform="translate(32.157024, 0.000000)">
                    <g id="Group-14" transform="translate(0.842976, 7.000000)" opacity="0.1">
                        <path d="M19.6502417,34.8927834 L9.08802335,34.8927834 C10.8049685,32.2094724 12.6809367,29.6309822 14.7059017,27.1710938 C16.2749612,25.2463547 17.9312962,23.3708707 19.6502417,21.5635862 L19.6502417,34.8927834 Z" id="Path"></path>
                        <path d="M19.6502417,35.7035987 L19.6502417,63.2599522 L0.455349813,63.2599522 C0.455349813,63.1803862 0.468630849,63.0989258 0.474322722,63.0193598 C0.49139834,62.8015005 0.508473958,62.5836413 0.527446867,62.3676765 C0.548317066,62.1138231 0.571084557,61.8580753 0.595749339,61.6099052 C0.62041412,61.3617351 0.646976193,61.0586265 0.675435556,60.7839344 C0.703894919,60.5092423 0.730456992,60.2307614 0.762710937,59.9560693 C0.794964882,59.6813772 0.823424245,59.4066851 0.857575481,59.1338874 C0.891726717,58.8610897 0.922083371,58.5845032 0.958131898,58.3117056 C0.986591262,58.0843742 1.01694792,57.8589372 1.04730457,57.6316058 C1.09094226,57.3114474 1.13647724,56.9893946 1.1858068,56.6711307 C1.1858068,56.62377 1.19908784,56.5745148 1.206677,56.5290486 C1.55296838,54.199209 2.02481377,51.8897064 2.62015872,49.6105966 C3.24334123,47.2198011 4.03912295,44.8772116 5.00125878,42.601212 C6.02383254,40.2202461 7.22111722,37.9179374 8.58334398,35.7130708 L19.6502417,35.7035987 Z" id="Path"></path>
                        <path d="M24.2473775,64.068873 L24.2473775,90.2763936 L65.3749521,90.2763936 L65.3749521,64.068873 L24.2473775,64.068873 Z M24.2473775,91.0853145 L24.2473775,113.591122 C24.4826416,113.640377 24.7160084,113.687738 24.9474779,113.727521 C25.2624282,113.788143 25.5754812,113.843081 25.8961233,113.890442 C25.9568366,113.899914 26.0194472,113.909386 26.0858524,113.915069 C26.2110736,113.935908 26.3400894,113.952958 26.4653106,113.970008 C26.7821582,114.01358 27.0971085,114.049574 27.413956,114.07799 C27.563842,114.093146 27.7156253,114.106407 27.8674086,114.117773 L28.2335857,114.14619 L28.2335857,114.14619 C28.4328012,114.161345 28.6301195,114.172712 28.8255405,114.178395 C28.9469671,114.178395 29.0683937,114.189762 29.1936149,114.19355 C29.2884794,114.19355 29.383344,114.19355 29.4820031,114.19355 C29.5806622,114.19355 29.7210618,114.19355 29.8405911,114.19355 C30.0037581,114.19355 30.1669251,114.19355 30.3281948,114.19355 L30.5463833,114.19355 C30.7095503,114.19355 30.8727173,114.19355 31.033987,114.178395 L31.0453708,114.178395 C31.157311,114.178395 31.2711484,114.178395 31.3849859,114.16324 C31.4165792,114.165125 31.4482571,114.165125 31.4798504,114.16324 C31.574715,114.16324 31.6695795,114.16324 31.7606495,114.149979 L31.8270546,114.149979 L32.4626471,114.100723 C32.6713491,114.081779 32.8819484,114.057152 33.094445,114.034418 L33.5270273,113.983269 C35.2869118,113.737048 37.02724,113.367351 38.7350908,112.876923 C42.5714129,111.808465 46.3242543,110.313761 50.1586792,109.218782 C55.1163003,107.807433 60.5937791,107.114072 65.3844386,108.839896 L65.3844386,91.0853145 L24.2473775,91.0853145 Z M65.3749521,34.8927834 L65.3749521,0.00309811965 C60.872183,-0.0456121107 56.381628,0.480243626 52.0123324,1.56789586 C41.5981027,4.18031243 32.2539451,9.84654736 24.2473775,17.0832633 L24.2473775,34.890889 L26.31163,34.890889 L26.31163,35.6998098 L24.2473775,35.6998098 L24.2473775,63.2599522 L65.3749521,63.2599522 L65.3749521,35.7017043 L34.7868284,35.7017043 L34.7868284,34.8927834 L65.3749521,34.8927834 Z M118.201222,23.1075452 C115.624701,23.0166126 113.063359,22.2020085 110.746766,20.9441081 C106.316592,18.5381842 102.778145,14.8232104 98.8241905,11.6879316 C90.6089209,5.15783742 80.4204688,1.21742663 69.9682934,0.239901652 L69.9682934,34.8927834 L128.67996,34.8927834 L128.826051,34.7393347 L118.201222,23.1075452 Z M123.549685,22.1603311 L129.220688,28.3740558 L129.220688,20.5311228 C127.3215,20.7660319 125.657575,21.3248882 123.557274,22.1527533 L123.549685,22.1603311 Z M129.220688,119.179686 L129.220688,91.0853145 L117.136842,91.0853145 C117.104588,90.9659655 117.072334,90.8447221 117.034388,90.7234787 C117.070437,90.8447221 117.100794,90.9659655 117.134945,91.0853145 L69.9758825,91.0853145 L69.9758825,111.403058 C70.4236432,111.734583 70.8657119,112.083157 71.3039861,112.437415 L71.3039861,112.437415 C71.7764116,112.816301 72.2431451,113.216025 72.711776,113.608172 L73.1842014,113.998424 C73.409979,114.187867 73.6376539,114.37731 73.8672261,114.555386 C74.3225759,114.924168 74.7823528,115.287898 75.2465566,115.646577 C75.4761288,115.83602 75.7113929,116.006518 75.9447596,116.184594 C79.6496205,119.012919 83.5578344,121.565287 87.6377634,123.821035 C88.5522576,124.326216 89.4749734,124.819398 90.4059108,125.300583 C91.0263249,125.616953 91.6505336,125.931428 92.2766396,126.236431 C93.2176959,126.694882 94.1663413,127.136916 95.1225759,127.562531 L95.1225759,127.562531 C103.938595,131.514007 113.260889,134.225506 122.823023,135.619534 C124.946724,135.932746 127.078646,136.179022 129.21879,136.358361 L129.21879,119.177791 L129.40852,119.177791 L129.220688,119.179686 Z M69.9758825,35.7017043 L69.9758825,63.2599522 L129.228277,63.2599522 L129.228277,35.7017043 L69.9758825,35.7017043 Z M69.9758825,64.068873 L69.9758825,90.2763936 L129.228277,90.2763936 L129.228277,64.068873 L69.9758825,64.068873 Z M133.82731,20.497023 L133.82731,29.2454928 L141.065475,21.3154161 C138.667299,20.9289527 136.254578,20.6529976 133.82731,20.4875509 L133.82731,20.497023 Z M133.82731,64.0783452 L133.82731,90.2763936 L191.457521,90.2763936 L191.457521,64.068873 L133.82731,64.0783452 Z M191.246921,121.259768 L191.449932,91.0853145 L133.82731,91.0853145 L133.82731,136.659575 C137.539364,136.815283 141.257127,136.771016 144.964408,136.526965 L144.964408,136.526965 L145.028915,136.526965 C146.79972,136.415825 148.562304,136.254167 150.316665,136.041992 L150.356508,136.041992 C159.715961,134.954358 168.867762,132.516071 177.525714,128.803381 M202.569953,68.3843806 C202.353662,67.8747794 202.127885,67.3689671 201.898313,66.868838 C201.469525,65.9216239 201.016072,65.0009317 200.549339,64.0802396 L196.052759,64.0802396 L196.052759,90.2763936 L207.421326,90.2763936 C207.415634,82.8578125 205.535419,75.2800995 202.575645,68.3749085 L202.569953,68.3843806 Z M196.052759,91.0947866 L196.052759,117.048454 C199.255386,113.983269 201.960923,110.476682 203.909441,106.468072 C206.252595,101.641069 207.324564,96.4143412 207.41184,91.0909977 L196.052759,91.0947866 Z M196.052759,56.4419049 L196.052759,63.2618466 L200.12814,63.2618466 C198.895263,60.9141244 197.536735,58.6343561 196.058451,56.4324327 L196.052759,56.4419049 Z M156.968567,25.6385013 C156.668795,25.5248356 156.369023,25.4092755 156.067354,25.2975043 C152.885761,24.1243382 149.634557,23.1487403 146.332354,22.3762959 L135.25597,34.5138977 L135.25597,34.5138977 L135.043474,34.7393347 L135.18577,34.8946778 L174.60768,34.8946778 C169.117317,31.1210669 163.198188,28.0108042 156.974259,25.6290292 L156.968567,25.6385013 Z M175.763131,35.7111764 L134.635556,35.7111764 L133.82731,36.4500034 L133.82731,63.2599522 L140.911794,63.2599522 L140.923178,63.2599522 L140.923178,63.2599522 L191.46511,63.2599522 L191.46511,50.2736464 C186.893067,44.7524845 181.616033,39.8534512 175.768822,35.7017043 L175.763131,35.7111764 Z" id="Shape"></path>
                        <path d="M0.394636505,64.0707675 L19.6502417,64.0707675 L19.6502417,90.2763936 L1.80432363,90.2763936 C1.75689136,90.5454024 1.71135638,90.8163056 1.66202682,91.0872089 L19.6502417,91.0872089 L19.6502417,112.221451 C19.6179878,112.211978 19.5895284,112.200612 19.5591718,112.189245 C19.0506978,111.988436 18.5460184,111.77626 18.041339,111.548929 L17.7187996,111.403058 C17.2128554,111.16436 16.7069111,110.911769 16.2009669,110.645286 C16.0245188,110.552459 15.8480708,110.455843 15.67352,110.357333 C12.864738,108.786323 10.3131073,106.79563 8.10712396,104.454295 C8.04261607,104.391779 7.98190276,104.325474 7.91739487,104.264852 C7.61003375,103.931432 7.3083645,103.594224 7.0161817,103.249438 L6.69364225,102.870553 C6.34833531,102.448095 6.01441211,102.014271 5.68997537,101.574764 C5.6425431,101.510353 5.59700812,101.445943 5.54767856,101.385321 C4.22820214,99.558577 3.13261818,97.5805972 2.28433823,95.493649 C2.25777616,95.4311329 2.23500867,95.3629335 2.21034388,95.3042062 C1.9497826,94.6348415 1.71894554,93.9591621 1.51783271,93.277168 C1.43055733,92.9911093 1.34707653,92.7088395 1.27497948,92.4114142 C1.2484174,92.3242705 1.22564991,92.2390213 1.20477971,92.153772 C0.127118489,87.9538245 1.38555833e-12,83.5909563 1.38555833e-12,79.2583988 C1.38555833e-12,78.7525865 1.38555833e-12,78.2448797 1.38555833e-12,77.7428562 C1.38555833e-12,75.9905101 0.0208701998,74.2267974 0.051226854,72.4649791 C0.051226854,72.0084219 0.0701997628,71.5537591 0.0796862173,71.0953075 C0.10624829,69.9321285 0.144194107,68.7689496 0.193523671,67.6057706 C0.204907416,67.2818234 0.220085743,66.9597706 0.237161361,66.6377178 C0.237161361,66.4520638 0.246647815,66.2664098 0.265620724,66.0807559 C0.311155706,65.4063394 0.349101523,64.7376062 0.394636505,64.0707675 Z" id="Path"></path>
                    </g>
                    <path d="M155.961368,0 L155.570406,0 C140.015319,0 126.258659,8.1919585 118.345582,20.2801556 C110.432506,8.1919585 96.6758457,0 81.1207592,0 L80.7297969,0 C56.4337884,0.23043372 36.8561653,19.8909463 36.8429761,44.0726329 C36.8429761,58.5006485 43.1922037,78.9727626 55.5726764,95.8184176 C79.1607349,127.916991 118.345582,156 118.345582,156 C118.345582,156 157.53043,127.922179 181.113276,95.8184176 C193.498961,78.9727626 199.842976,58.5006485 199.842976,44.0726329 C199.829815,19.8929489 180.255337,0.233259321 155.961368,0 L155.961368,0 Z M150.945029,98.4392803 C147.342451,98.4254624 144.118573,96.1823525 142.829359,92.7925587 L133.589822,92.7925587 C132.342522,92.7847387 131.237771,91.979703 130.839713,90.7885466 L128.001559,82.1723383 L119.020977,113.792936 C118.66176,115.043298 117.526421,115.904514 116.234615,115.906542 L116.053346,115.906542 C114.701115,115.840681 113.578561,114.831345 113.360207,113.485027 L104.105132,57.3935636 L97.3412111,90.5850141 C97.022067,91.8825081 95.8659034,92.7934195 94.5393111,92.7925587 L81.5242006,92.7925587 C80.4616009,92.8378765 79.4598936,92.292464 78.9151848,91.3719943 C78.370476,90.4515246 78.370476,89.3042138 78.9151848,88.383744 C79.4598936,87.4632743 80.4616009,86.9178619 81.5242006,86.9631797 L92.2605014,86.9631797 L101.84186,42.3373788 C102.166235,40.9767062 103.400838,40.0375743 104.78837,40.0960427 C106.175901,40.1545112 107.328381,41.1942312 107.538884,42.5774428 L116.990765,99.7961635 L125.039106,71.5051488 C125.383275,70.281432 126.485619,69.4318817 127.747782,69.4176362 L127.804753,69.4176362 C129.053266,69.418036 130.160361,70.2263017 130.549682,71.4216483 L135.682183,86.978836 L142.715418,86.978836 C144.103094,82.730606 148.447675,80.2215919 152.786766,81.162589 C157.125858,82.1035861 160.061479,86.1914212 159.591948,90.6387648 C159.122418,95.0861083 155.39901,98.4601018 150.960566,98.4601554 L150.945029,98.4392803 Z" id="Shape"></path>
                </g>
            </g>
        </g>
    </g>
</svg>