<?xml version="1.0" encoding="utf-8"?>
<!-- Generator: Adobe Illustrator 24.0.3, SVG Export Plug-In . SVG Version: 6.00 Build 0)  -->
<svg version="1.1" id="Layer_1" xmlns="http://www.w3.org/2000/svg" xmlns:xlink="http://www.w3.org/1999/xlink" x="0px" y="0px"
	 viewBox="0 0 157 25" style="enable-background:new 0 0 157 25;" xml:space="preserve">
<style type="text/css">
	.st0{fill:#6D6D6D;}
</style>
<path id="FaithCounts" class="st0" d="M5.7,24v-8.3h6v-4.6h-6V7.5h6.6V2.9H0.2V24H5.7z M21.6,24.4c1.8,0,3.3-0.7,4.4-2l0,0V24h5.1
	V9.6H26v1.4c-1.2-1.3-2.7-1.9-4.5-1.9c-1.1,0-2,0.2-2.9,0.6c-0.9,0.4-1.6,0.9-2.3,1.6c-0.6,0.7-1.1,1.5-1.5,2.4
	c-0.4,0.9-0.5,1.9-0.5,2.9c0,1.1,0.2,2.1,0.5,3.1c0.4,0.9,0.9,1.7,1.5,2.4s1.4,1.2,2.3,1.6C19.6,24.3,20.6,24.4,21.6,24.4z
	 M22.9,20.1c-0.5,0-0.9-0.1-1.3-0.3s-0.7-0.4-1-0.7c-0.3-0.3-0.5-0.6-0.7-1s-0.3-0.8-0.3-1.3c0-0.4,0.1-0.9,0.3-1.2
	c0.2-0.4,0.4-0.7,0.7-1c0.3-0.3,0.6-0.5,1-0.7c0.4-0.2,0.8-0.3,1.3-0.3c0.4,0,0.9,0.1,1.3,0.3c0.4,0.2,0.7,0.4,1,0.7
	c0.3,0.3,0.5,0.6,0.7,1.1c0.2,0.4,0.3,0.8,0.3,1.3c0,0.4-0.1,0.9-0.3,1.3c-0.2,0.4-0.4,0.7-0.7,1c-0.3,0.3-0.6,0.5-1,0.7
	S23.3,20.1,22.9,20.1z M37.1,7c0.4,0,0.8-0.1,1.1-0.2c0.3-0.1,0.6-0.4,0.9-0.6c0.3-0.3,0.5-0.6,0.6-0.9c0.1-0.3,0.2-0.7,0.2-1.1
	c0-0.4-0.1-0.8-0.2-1.1c-0.1-0.3-0.4-0.6-0.6-0.9c-0.3-0.3-0.6-0.5-0.9-0.6c-0.3-0.1-0.7-0.2-1.1-0.2c-0.4,0-0.8,0.1-1.1,0.2
	c-0.3,0.1-0.6,0.4-0.9,0.6c-0.3,0.3-0.5,0.6-0.6,0.9c-0.1,0.3-0.2,0.7-0.2,1.1c0,0.4,0.1,0.8,0.2,1.1c0.1,0.3,0.4,0.6,0.6,0.9
	c0.3,0.3,0.6,0.5,0.9,0.6C36.3,6.9,36.7,7,37.1,7z M39.6,24V9.6h-5.1V24H39.6z M48.7,24V13.9h2.9V9.6h-2.9V5.3h-5.1v4.3H42v4.2h1.7
	V24H48.7z M59.2,24v-7.7c0-1,0.2-1.7,0.7-2.2c0.5-0.5,1.1-0.8,2-0.8c0.6,0,1.2,0.2,1.6,0.6c0.3,0.2,0.4,0.6,0.6,1s0.2,1,0.2,1.8l0,0
	V24h5.1v-9.1c0-1.7-0.5-3-1.4-4c-0.9-1-2.3-1.5-4.1-1.5c-1,0-1.8,0.1-2.5,0.4s-1.4,0.9-2.1,1.7l0,0V0.8h-5.1V24H59.2z M83.4,24.4
	c2,0,3.9-0.5,5.7-1.5l0,0V19c-0.5,0.4-1,0.8-1.5,1.1c-0.5,0.3-0.9,0.6-1.4,0.7c-0.8,0.4-1.7,0.5-2.9,0.5c-2.2,0-4-0.8-5.5-2.3
	c-1.5-1.5-2.2-3.4-2.2-5.6c0-2.2,0.7-4.1,2.2-5.7c1.5-1.6,3.3-2.3,5.5-2.3c2,0,3.9,0.8,5.7,2.3l0,0V4c-1.8-1-3.6-1.5-5.5-1.5
	c-3.5,0-6.3,1.3-8.5,3.9c-1.8,2.1-2.7,4.5-2.7,7.2c0,3,1.1,5.6,3.2,7.7C77.8,23.3,80.4,24.4,83.4,24.4z M99,24.4c2,0,3.7-0.7,5.1-2
	c1.4-1.3,2.1-3,2.1-5c0-2-0.7-3.6-2.1-5c-1.4-1.4-3.1-2-5.1-2c-2,0-3.7,0.7-5,2c-1.4,1.3-2.1,3-2.1,4.9c0,2,0.7,3.7,2,5.1
	C95.3,23.7,97,24.4,99,24.4z M99.1,21.6c-1.2,0-2.2-0.4-2.9-1.2c-0.7-0.8-1.1-1.8-1.1-3.2c0-1.2,0.4-2.3,1.1-3s1.7-1.2,2.9-1.2
	c1.2,0,2.2,0.4,2.9,1.2c0.7,0.8,1.1,1.8,1.1,3.1s-0.4,2.3-1.1,3.1S100.3,21.6,99.1,21.6z M115.1,24.4c1.6,0,2.9-0.5,4-1.4
	c0.6-0.6,1.1-1.2,1.3-1.9c0.3-0.8,0.4-1.7,0.4-2.8l0,0v-7.7h-3.1v7.6c0,2.2-0.9,3.3-2.6,3.3s-2.6-1.1-2.6-3.3l0,0v-7.6h-3.1v7.7
	c0,1.2,0.1,2.1,0.4,2.8c0.3,0.7,0.7,1.3,1.4,1.9C112.2,23.9,113.5,24.4,115.1,24.4z M127.8,24v-6.4c0-1.7,0.2-2.8,0.6-3.5
	c0.4-0.7,1.2-1,2.2-1c0.9,0,1.6,0.3,1.9,0.8c0.4,0.5,0.5,1.4,0.5,2.7l0,0V24h3.1v-8.2c0-1.9-0.4-3.2-1.1-4.1c-0.9-1-2.1-1.5-3.6-1.5
	c-1.3,0-2.6,0.5-3.6,1.6l0,0v-1.2h-3.1V24H127.8z M143.2,24V13.6h2.4v-2.9h-2.4V5.8h-3.1v4.9h-1.3v2.9h1.3V24H143.2z M151.5,24.4
	c1.3,0,2.4-0.4,3.3-1.2c0.9-0.9,1.4-1.9,1.4-3.2c0-1-0.3-1.8-0.8-2.4s-1.7-1.2-3.3-1.9c-1.2-0.5-1.8-1-1.8-1.5
	c0-0.3,0.1-0.5,0.3-0.7s0.4-0.3,0.7-0.3c0.6,0,1.1,0.4,1.5,1.2l0,0l2.5-1.4c-0.8-1.8-2.1-2.6-3.8-2.6c-1.2,0-2.1,0.4-3,1.1
	c-0.8,0.8-1.2,1.7-1.2,2.9c0,0.9,0.2,1.6,0.7,2.1c0.4,0.4,1,0.9,1.9,1.3c0.3,0.2,0.6,0.3,0.9,0.5s0.6,0.3,0.9,0.5
	c0.8,0.5,1.2,1,1.2,1.5c0,0.9-0.5,1.4-1.6,1.4c-0.5,0-1-0.2-1.3-0.5c-0.2-0.2-0.5-0.6-0.8-1.2l0,0l-2.6,1.2
	C147.7,23.3,149.3,24.4,151.5,24.4z"/>
</svg>
