<?xml version="1.0" encoding="UTF-8"?>
<svg width="42px" height="42px" viewBox="0 0 42 42" version="1.1" xmlns="http://www.w3.org/2000/svg" xmlns:xlink="http://www.w3.org/1999/xlink">
    <!-- Generator: Sketch 61.2 (89653) - https://sketch.com -->
    <title>Group 8</title>
    <desc>Created with Sketch.</desc>
    <g id="Page-1" stroke="none" stroke-width="1" fill="none" fill-rule="evenodd">
        <g id="1-Browse-home-mobile" transform="translate(-317.000000, -758.000000)">
            <g id="Group-8" transform="translate(317.000000, 758.000000)">
                <circle id="Oval" fill="#9E9E9E" cx="21" cy="21" r="21"></circle>
                <path d="M21,1 C32.045695,1 41,9.954305 41,21 C41,32.045695 32.045695,41 21,41 C9.954305,41 1,32.045695 1,21 C1,9.954305 9.954305,1 21,1 Z M26,11 C23.794,11 22,12.794 22,15 C22,15.465 22.08,15.912 22.227,16.327 L17.325,18.778 C16.607,17.706 15.384,17 14,17 C11.794,17 10,18.794 10,21 C10,23.206 11.794,25 14,25 C15.384,25 16.606,24.293 17.325,23.221 L22.227,25.672 C22.08,26.088 22,26.534 22,27 C22,29.206 23.794,31 26,31 C28.206,31 30,29.206 30,27 C30,24.794 28.206,23 26,23 C24.616,23 23.394,23.707 22.675,24.779 L17.773,22.328 C17.92,21.912 18,21.466 18,21 C18,20.534 17.92,20.088 17.773,19.672 L22.675,17.221 C23.393,18.293 24.616,19 26,19 C28.206,19 30,17.206 30,15 C30,12.794 28.206,11 26,11 Z M26,24 C27.654,24 29,25.346 29,27 C29,28.654 27.654,30 26,30 C24.346,30 23,28.654 23,27 C23,25.346 24.346,24 26,24 Z M14,18 C15.654,18 17,19.346 17,21 C17,22.654 15.654,24 14,24 C12.346,24 11,22.654 11,21 C11,19.346 12.346,18 14,18 Z M26,12 C27.654,12 29,13.346 29,15 C29,16.654 27.654,18 26,18 C24.346,18 23,16.654 23,15 C23,13.346 24.346,12 26,12 Z" id="Combined-Shape" fill="#FFFFFF"></path>
                <g id="0151-envelope" transform="translate(11.000000, 15.000000)"></g>
            </g>
        </g>
    </g>
</svg>