<?xml version="1.0" encoding="UTF-8"?>
<svg width="42px" height="42px" viewBox="0 0 42 42" version="1.1" xmlns="http://www.w3.org/2000/svg" xmlns:xlink="http://www.w3.org/1999/xlink">
    <!-- Generator: Sketch 61.1 (89650) - https://sketch.com -->
    <title>Group 3</title>
    <desc>Created with Sketch.</desc>
    <g id="Symbols" stroke="none" stroke-width="1" fill="none" fill-rule="evenodd">
        <g id="Social-media-icons" transform="translate(0.000000, -108.000000)">
            <g id="Group-7">
                <g id="Group-3" transform="translate(0.000000, 108.000000)">
                    <circle id="Oval" fill="#9E9E9E" cx="21" cy="21" r="21"></circle>
                    <g id="Pinterest-2" transform="translate(1.000000, 1.000000)" fill="#FFFFFF">
                        <path d="M25.4161708,22.4686084 C23.632143,24.5194949 21.0853788,24.7495147 18.8124282,23.112028 C18.2245341,25.3736423 17.7805405,27.6806246 15.7597868,29.3887073 C15.7597868,28.1612282 15.6095283,26.9102171 15.7947552,25.71157 C16.0795893,23.8678074 16.6219185,22.0649607 16.996399,20.2328581 C17.1046953,19.7017985 17.0911318,19.1156189 16.9949155,18.5794713 C16.8058738,17.5281641 16.8323651,16.5281608 17.4518368,15.6303415 C17.9509323,14.906362 18.6314399,14.4853303 19.5414678,14.8260141 C20.4330578,15.1599138 20.623795,15.9339253 20.4676025,16.7429167 C20.2611825,17.8141519 19.9458305,18.8665191 19.6353529,19.9144343 C19.401382,20.7030737 19.4655968,21.3984332 20.1497073,21.9138048 C20.8887076,22.4703044 21.6664911,22.3615485 22.4370691,21.9428488 C24.5593373,20.7899937 25.5842313,15.3909937 23.4867589,13.596839 C21.997526,12.3227199 20.2995419,12.1473961 18.5131829,12.6470797 C16.6662119,13.1635113 15.5128882,14.4361464 15.013157,16.283513 C14.6958976,17.4562961 14.82793,18.5417353 15.4363814,19.6479505 C15.6748028,20.0810662 15.3912403,20.8016537 15.3452515,21.3912252 C14.885787,21.2228973 14.3029791,21.1783774 13.9872032,20.8650416 C12.6011803,19.4874666 12.4295169,17.7569119 12.8366346,15.9453733 C13.5533823,12.7547756 16.5468952,10.5749932 20.2753818,10.4825613 C23.5721668,10.4007294 26.4077918,12.275868 27.1162742,15.2288138 C27.7510049,17.8732998 27.235167,20.377442 25.4161708,22.4686084 M19.9471021,0 C8.84387116,0.0140090367 -0.053167208,9.01552238 0,20.1817661 C0.0523739918,31.08937 9.08186868,40.0277074 20.020218,40 C31.1490924,39.9719515 40.0287525,31.0141101 40,19.8442624 C39.9719553,8.8497385 31.0151526,-0.0141869425 19.9471021,0" id="Pinterest"></path>
                    </g>
                </g>
            </g>
        </g>
    </g>
</svg>