<?xml version="1.0" encoding="UTF-8"?>
<svg width="24px" height="24px" viewBox="0 0 24 24" version="1.1" xmlns="http://www.w3.org/2000/svg" xmlns:xlink="http://www.w3.org/1999/xlink">
    <!-- Generator: Sketch 61.2 (89653) - https://sketch.com -->
    <title>icon/film/white</title>
    <desc>Created with Sketch.</desc>
    <g id="Symbols" stroke="none" stroke-width="1" fill="none" fill-rule="evenodd">
        <g id="Tab/Reading" transform="translate(-10.000000, -8.000000)" fill="#FFFFFF">
            <g id="icon/article/white" transform="translate(10.000000, 8.000000)">
                <g id="0215-reading" transform="translate(0.500000, 0.000000)">
                    <path d="M22.3947368,6 C22.3354211,6 20.9203158,6.0072 18.8176316,6.6252 C16.9836842,7.164 14.2612105,8.2884 11.5,10.6068 C8.73878947,8.2896 6.01510526,7.164 4.18236842,6.6252 C2.07968421,6.0072 0.664578947,6 0.605263158,6 C0.271157895,6 0,6.2688 0,6.6 L0,18.6 C0,18.7596 0.0641578947,18.912 0.176736842,19.0248 C0.289315789,19.1376 0.444263158,19.2 0.605263158,19.2 C0.657315789,19.2 5.88315789,19.2528 11.0981053,23.8488 C11.2131053,23.9496 11.3559474,24 11.5,24 C11.6440526,24 11.7868947,23.9496 11.9018947,23.8488 C14.6146842,21.4584 17.3202105,20.322 19.113,19.7904 C21.0607368,19.212 22.3826316,19.2 22.3947368,19.2 C22.7288421,19.2 23,18.9312 23,18.6 L23,6.6 C23,6.2688 22.7288421,6 22.3947368,6 L22.3947368,6 Z M1.21052632,10.8 L1.81578947,10.8 C2.14989474,10.8 2.42105263,11.0688 2.42105263,11.4 L2.42105263,13.8 C2.42105263,14.1312 2.14989474,14.4 1.81578947,14.4 L1.21052632,14.4 L1.21052632,10.8 Z M1.21052632,18.0348 L1.21052632,15.6 L1.81578947,15.6 C2.81689474,15.6 3.63157895,14.7924 3.63157895,13.8 L3.63157895,11.4 C3.63157895,10.4076 2.81689474,9.6 1.81578947,9.6 L1.21052632,9.6 L1.21052632,7.242 C2.71278947,7.3992 6.78621053,8.1432 10.8947368,11.6724 L10.8947368,22.1172 C8.34536842,20.1276 5.88194737,19.1244 4.18236842,18.6252 C2.87015789,18.24 1.82547368,18.0924 1.21052632,18.036 L1.21052632,18.0348 Z M18.8176316,18.6252 C17.1180526,19.1244 14.6546316,20.1276 12.1052632,22.1172 L12.1052632,11.6724 C14.7490526,9.4032 17.365,8.3088 19.113,7.7904 C20.2775263,7.4448 21.2193158,7.3008 21.7894737,7.242 L21.7894737,9.6 L21.1842105,9.6 C20.1831053,9.6 19.3684211,10.4076 19.3684211,11.4 L19.3684211,13.8 C19.3684211,14.7924 20.1831053,15.6 21.1842105,15.6 L21.7894737,15.6 L21.7894737,18.0348 C21.1757368,18.0912 20.1310526,18.2388 18.8176316,18.624 L18.8176316,18.6252 Z M21.7894737,10.8 L21.7894737,14.4 L21.1842105,14.4 C20.8501053,14.4 20.5789474,14.1312 20.5789474,13.8 L20.5789474,11.4 C20.5789474,11.0688 20.8501053,10.8 21.1842105,10.8 L21.7894737,10.8 Z" id="Shape" fill-rule="nonzero"></path>
                    <path d="M11.5,8.4 C13.8363158,8.4 15.7368421,6.516 15.7368421,4.2 C15.7368421,1.884 13.8363158,0 11.5,0 C9.16368421,0 7.26315789,1.884 7.26315789,4.2 C7.26315789,6.516 9.16368421,8.4 11.5,8.4 Z M11.5,1.2 C13.1681053,1.2 14.5263158,2.5464 14.5263158,4.2 C14.5263158,5.8536 13.1681053,7.2 11.5,7.2 C9.83189474,7.2 8.47368421,5.8536 8.47368421,4.2 C8.47368421,2.5464 9.83189474,1.2 11.5,1.2 Z" id="Shape" fill-rule="nonzero"></path>
                </g>
            </g>
        </g>
    </g>
</svg>