<?xml version="1.0" encoding="UTF-8"?>
<svg width="14px" height="13px" viewBox="0 0 14 13" version="1.1" xmlns="http://www.w3.org/2000/svg" xmlns:xlink="http://www.w3.org/1999/xlink">
    <!-- Generator: Sketch 61.2 (89653) - https://sketch.com -->
    <title>Path</title>
    <desc>Created with Sketch.</desc>
    <g id="Page-1" stroke="none" stroke-width="1" fill="none" fill-rule="evenodd">
        <g id="11-Search" transform="translate(-1393.000000, -21.000000)" fill="#000000" fill-rule="nonzero">
            <g id="Group-4">
                <path d="M1400.707,27.5 L1406.353,21.854 C1406.548,21.659 1406.548,21.342 1406.353,21.147 C1406.158,20.952 1405.841,20.952 1405.646,21.147 L1400,26.793 L1394.354,21.147 C1394.159,20.952 1393.842,20.952 1393.647,21.147 C1393.452,21.342 1393.452,21.659 1393.647,21.854 L1399.293,27.5 L1393.647,33.146 C1393.452,33.341 1393.452,33.658 1393.647,33.853 C1393.745,33.951 1393.873,33.999 1394.001,33.999 C1394.129,33.999 1394.257,33.95 1394.355,33.853 L1400.001,28.207 L1405.647,33.853 C1405.745,33.951 1405.873,33.999 1406.001,33.999 C1406.129,33.999 1406.257,33.95 1406.355,33.853 C1406.55,33.658 1406.55,33.341 1406.355,33.146 L1400.709,27.5 L1400.707,27.5 Z" id="Path"></path>
            </g>
        </g>
    </g>
</svg>