<?xml version="1.0" encoding="UTF-8"?>
<svg width="44px" height="40px" viewBox="0 0 44 40" version="1.1" xmlns="http://www.w3.org/2000/svg" xmlns:xlink="http://www.w3.org/1999/xlink">
    <!-- Generator: Sketch 61.2 (89653) - https://sketch.com -->
    <title>Tab/Film</title>
    <desc>Created with Sketch.</desc>
    <g id="Tab/Film" stroke="none" stroke-width="1" fill="none" fill-rule="evenodd">
        <path d="M0,0 L36,0 C40.418278,-8.11624501e-16 44,3.581722 44,8 L44,32 C44,36.418278 40.418278,40 36,40 L0,40 L0,40 L0,0 Z" id="Rectangle" fill="#256B66" opacity="0.75"></path>
        <g id="icon/film/white" transform="translate(10.000000, 8.000000)" fill="#FFFFFF" fill-rule="nonzero">
            <path d="M23.3611111,0 L1.63888889,0 C1.28622222,0 1,0.282947368 1,0.631578947 L1,23.3684211 C1,23.7170526 1.28622222,24 1.63888889,24 L23.3611111,24 C23.7137778,24 24,23.7170526 24,23.3684211 L24,0.631578947 C24,0.282947368 23.7137778,0 23.3611111,0 Z M4.83333333,7.57894737 L2.27777778,7.57894737 L2.27777778,5.05263158 L4.83333333,5.05263158 L4.83333333,7.57894737 Z M4.83333333,8.84210526 L4.83333333,11.3684211 L2.27777778,11.3684211 L2.27777778,8.84210526 L4.83333333,8.84210526 Z M4.83333333,12.6315789 L4.83333333,15.1578947 L2.27777778,15.1578947 L2.27777778,12.6315789 L4.83333333,12.6315789 Z M2.27777778,16.4210526 L4.83333333,16.4210526 L4.83333333,18.9473684 L2.27777778,18.9473684 L2.27777778,16.4210526 Z M6.11111111,1.26315789 L18.8888889,1.26315789 L18.8888889,22.7368421 L6.11111111,22.7368421 L6.11111111,1.26315789 Z M20.1666667,12.6315789 L22.7222222,12.6315789 L22.7222222,15.1578947 L20.1666667,15.1578947 L20.1666667,12.6315789 Z M20.1666667,11.3684211 L20.1666667,8.84210526 L22.7222222,8.84210526 L22.7222222,11.3684211 L20.1666667,11.3684211 Z M20.1666667,7.57894737 L20.1666667,5.05263158 L22.7222222,5.05263158 L22.7222222,7.57894737 L20.1666667,7.57894737 Z M20.1666667,16.4210526 L22.7222222,16.4210526 L22.7222222,18.9473684 L20.1666667,18.9473684 L20.1666667,16.4210526 Z M22.7222222,3.78947368 L20.1666667,3.78947368 L20.1666667,1.26315789 L22.7222222,1.26315789 L22.7222222,3.78947368 Z M4.83333333,1.26315789 L4.83333333,3.78947368 L2.27777778,3.78947368 L2.27777778,1.26315789 L4.83333333,1.26315789 Z M2.27777778,20.2105263 L4.83333333,20.2105263 L4.83333333,22.7368421 L2.27777778,22.7368421 L2.27777778,20.2105263 Z M20.1666667,22.7368421 L20.1666667,20.2105263 L22.7222222,20.2105263 L22.7222222,22.7368421 L20.1666667,22.7368421 Z" id="Shape"></path>
        </g>
    </g>
</svg>