<?xml version="1.0" encoding="UTF-8"?>
<svg width="42px" height="42px" viewBox="0 0 42 42" version="1.1" xmlns="http://www.w3.org/2000/svg" xmlns:xlink="http://www.w3.org/1999/xlink">
    <!-- Generator: Sketch 61.1 (89650) - https://sketch.com -->
    <title>Group</title>
    <desc>Created with Sketch.</desc>
    <g id="Symbols" stroke="none" stroke-width="1" fill="none" fill-rule="evenodd">
        <g id="Social-media-icons">
            <g id="Group-7">
                <g id="Group">
                    <circle id="Oval" fill="#9E9E9E" cx="21" cy="21" r="21"></circle>
                    <path d="M28.7511717,16.4121827 C27.6852085,17.2990268 27.4656146,18.4812737 27.2417814,19.80656 C26.1838729,26.070625 19.5201726,29.4099056 13.8518517,26.6165056 C13.6687154,26.5264438 13.4955415,26.4154028 13.1775966,26.2344315 C14.0710217,26.0784657 14.8247629,26.0144688 15.5348398,25.8036181 C16.2249921,25.5991248 16.8704202,25.2441753 17.8032704,24.8387911 C16.2550909,24.4476049 15.2438143,23.8540445 14.7794028,22.4971836 C15.1026467,22.4433584 15.3620897,22.3999168 15.7849564,22.3295626 C14.4453487,21.6139419 13.6464593,20.6802657 13.5553151,19.1549362 C13.971187,19.2422431 14.2935831,19.3102663 14.8037786,19.4177048 C13.6108495,18.0508841 13.1881948,16.7150023 14.0538526,15.0811748 C15.8688939,17.0722829 17.9970048,18.2693635 20.7046232,18.4725854 C20.7243358,18.1348005 20.7334502,17.8273189 20.7612174,17.5213206 C20.9693653,15.2201879 23.3240649,13.8080184 25.4254684,14.7217751 C26.9142982,15.3691607 26.9142982,15.3691607 28.5313658,14.8476498 C28.3872308,15.1568267 28.3009618,15.4034902 28.1646694,15.6183671 C28.0156592,15.8533755 27.8204411,16.0591403 27.5603622,16.3837867 C28.0232899,16.3111015 28.3719694,16.2566406 28.7267959,16.2009082 C28.7393017,16.2966916 28.7759714,16.3914155 28.7511717,16.4121827 M21.0340141,1 C9.9947566,0.955453904 1.03422263,9.89763981 1,20.9936808 C0.966182435,32.0111031 9.87075811,40.9670632 20.8915748,41 C31.9880623,41.0327554 40.9640696,32.1420636 41,21.0826831 C41.0359251,10.0305075 32.1029464,1.04530382 21.0340141,1" id="Twitter" fill="#FFFFFF"></path>
                </g>
            </g>
        </g>
    </g>
</svg>