<?xml version="1.0" encoding="UTF-8"?>
<svg width="42px" height="42px" viewBox="0 0 42 42" version="1.1" xmlns="http://www.w3.org/2000/svg" xmlns:xlink="http://www.w3.org/1999/xlink">
    <!-- Generator: Sketch 61.1 (89650) - https://sketch.com -->
    <title>Group Copy 3</title>
    <desc>Created with Sketch.</desc>
    <g id="Symbols" stroke="none" stroke-width="1" fill="none" fill-rule="evenodd">
        <g id="Social-media-icons" transform="translate(0.000000, -160.000000)">
            <g id="Group-7">
                <g id="Group-Copy-3" transform="translate(0.000000, 160.000000)">
                    <g id="Group-6">
                        <circle id="Oval" fill="#9E9E9E" cx="21" cy="21" r="21"></circle>
                        <path d="M21,1 C32.045695,1 41,9.954305 41,21 C41,32.045695 32.045695,41 21,41 C9.954305,41 1,32.045695 1,21 C1,9.954305 9.954305,1 21,1 Z M29.4210526,15 L12.5789474,15 C11.7084211,15 11,15.7084211 11,16.5789474 L11,26.0526316 C11,26.9231579 11.7084211,27.6315789 12.5789474,27.6315789 L29.4210526,27.6315789 C30.2915789,27.6315789 31,26.9231579 31,26.0526316 L31,16.5789474 C31,15.7084211 30.2915789,15 29.4210526,15 Z M29.9473684,17.0357895 L29.9473684,26.0526316 C29.9473684,26.3431579 29.7115789,26.5789474 29.4210526,26.5789474 L12.5789474,26.5789474 C12.2884211,26.5789474 12.0526316,26.3431579 12.0526316,26.0526316 L12.0526316,17.0357895 L19.8326316,22.2221053 C20.16,22.44 20.58,22.5494737 21,22.5494737 C21.42,22.5494737 21.84,22.44 22.1673684,22.2221053 L29.9473684,17.0357895 Z M29.4210526,16.0526316 C29.4526316,16.0526316 29.4821053,16.0557895 29.5126316,16.0610526 L21.5842105,21.3463158 C21.2789474,21.5494737 20.7221053,21.5494737 20.4168421,21.3463158 L12.4884211,16.0610526 C12.5178947,16.0557895 12.5484211,16.0526316 12.58,16.0526316 L29.4210526,16.0526316 Z" id="Combined-Shape" fill="#FFFFFF"></path>
                        <g id="0151-envelope" transform="translate(11.000000, 15.000000)"></g>
                    </g>
                </g>
            </g>
        </g>
    </g>
</svg>