<?xml version="1.0" encoding="UTF-8"?>
<svg width="42px" height="42px" viewBox="0 0 42 42" version="1.1" xmlns="http://www.w3.org/2000/svg" xmlns:xlink="http://www.w3.org/1999/xlink">
    <!-- Generator: Sketch 61.1 (89650) - https://sketch.com -->
    <title>Group 5</title>
    <desc>Created with Sketch.</desc>
    <g id="Symbols" stroke="none" stroke-width="1" fill="none" fill-rule="evenodd">
        <g id="Social-media-icons" transform="translate(0.000000, -56.000000)">
            <g id="Group-7">
                <g id="Group-5" transform="translate(0.000000, 56.000000)">
                    <circle id="Oval" fill="#9E9E9E" cx="21" cy="21" r="21"></circle>
                    <path d="M25.1987188,20.9543417 L22.4909209,20.9543417 L22.4909209,30.6016135 L18.57377,30.6016135 L18.57377,21.082144 C17.8614258,21.0287341 17.2779437,20.9850736 16.6279112,20.9361146 L16.6279112,17.7179553 C17.2512388,17.6829845 17.8336612,17.6503451 18.5489725,17.6100757 C18.5489725,16.7025311 18.5292617,15.8322886 18.5532114,14.9628939 C18.6098005,12.8760922 19.5476531,11.7292627 21.6238576,11.4711148 C22.8346942,11.3208464 24.079442,11.443774 25.4019732,11.443774 L25.4019732,14.6104308 C24.4429261,14.7683292 23.3225896,14.6434941 22.7518241,15.14453 C22.3020787,15.5395938 22.5290708,16.7054983 22.4455649,17.6422912 L25.4611056,17.6422912 C25.3708174,18.7821266 25.2894308,19.8100555 25.1987188,20.9543417 M21.0140944,1 C9.94828079,1.01379271 1.0031799,9.96864303 1,21.0357283 C0.997033521,32.0383825 9.9425583,40.9902656 20.9534784,41.0038455 C32.0540508,41.0173945 40.9972442,32.1121391 41,21.0420866 C41.0025428,9.9550786 32.0587136,0.986028029 21.0140944,1" id="Facebook" fill="#FFFFFF"></path>
                </g>
            </g>
        </g>
    </g>
</svg>