<?xml version="1.0" encoding="UTF-8"?>
<svg width="40px" height="40px" viewBox="0 0 40 40" version="1.1" xmlns="http://www.w3.org/2000/svg" xmlns:xlink="http://www.w3.org/1999/xlink">
    <!-- Generator: Sketch 61.1 (89650) - https://sketch.com -->
    <title>Group 3</title>
    <desc>Created with Sketch.</desc>
    <g id="Page-1" stroke="none" stroke-width="1" fill="none" fill-rule="evenodd">
        <g id="1-Home" transform="translate(-232.000000, -7547.000000)" fill="#FFFFFF">
            <g id="Group-3-Copy" transform="translate(0.000000, 7486.000000)">
                <g id="Group-3" transform="translate(232.000000, 61.000000)">
                    <path d="M18.0733706,17.1220009 C19.8033177,18.0286676 21.3874447,18.8591438 23.1377092,19.7766041 C21.3921008,20.6741702 19.787233,21.4997787 18.0733706,22.3810486 L18.0733706,17.1220009 Z M29.3599315,24.1876094 C29.2742172,25.7164983 28.3588733,26.5129004 26.8471272,26.5393554 C22.3728415,26.617874 17.8958045,26.6494083 13.421942,26.5736411 C11.4898786,26.5410486 10.6234235,25.700202 10.5288203,23.7584031 C10.4020479,21.1628475 10.4263865,18.5503607 10.5641643,15.9545935 C10.6547463,14.2392496 11.5935823,13.4163925 13.3243759,13.3535353 C15.5417304,13.2729004 17.7643759,13.3340644 19.9846934,13.3340644 C19.9846934,13.3294083 19.984905,13.3251755 19.9851166,13.3205195 C22.1349579,13.3205195 24.2864923,13.268456 26.4344288,13.3359692 C28.3332648,13.3958634 29.2689262,14.0993554 29.3844817,15.9689851 C29.5535823,18.6991438 29.513159,21.4542761 29.3599315,24.1876094 L29.3599315,24.1876094 Z M19.8856457,4.79908654e-05 C8.86490501,0.0240115194 -0.0290632484,9.00856178 7.1374702e-05,20.0885618 C0.0291378098,31.0523713 9.02151876,39.9776623 20.0109368,39.9504232 C31.0608838,39.9226359 39.9921008,30.9469745 39.9524448,19.9103607 C39.9121008,8.85766231 30.9609897,-0.0238191684 19.8856457,4.79908654e-05 L19.8856457,4.79908654e-05 Z" id="Fill-1"></path>
                </g>
            </g>
        </g>
    </g>
</svg>