<?xml version="1.0" encoding="UTF-8"?>
<svg width="40px" height="40px" viewBox="0 0 40 40" version="1.1" xmlns="http://www.w3.org/2000/svg" xmlns:xlink="http://www.w3.org/1999/xlink">
    <!-- Generator: Sketch 61.1 (89650) - https://sketch.com -->
    <title>Facebook</title>
    <desc>Created with Sketch.</desc>
    <g id="Page-1" stroke="none" stroke-width="1" fill="none" fill-rule="evenodd">
        <g id="1-Home" transform="translate(-136.000000, -7547.000000)" fill="#FFFFFF">
            <g id="Group-3-Copy" transform="translate(0.000000, 7486.000000)">
                <path d="M160.198719,80.9543417 L157.490921,80.9543417 L157.490921,90.6016135 L153.57377,90.6016135 L153.57377,81.082144 C152.861426,81.0287341 152.277944,80.9850736 151.627911,80.9361146 L151.627911,77.7179553 C152.251239,77.6829845 152.833661,77.6503451 153.548973,77.6100757 C153.548973,76.7025311 153.529262,75.8322886 153.553211,74.9628939 C153.6098,72.8760922 154.547653,71.7292627 156.623858,71.4711148 C157.834694,71.3208464 159.079442,71.443774 160.401973,71.443774 L160.401973,74.6104308 C159.442926,74.7683292 158.32259,74.6434941 157.751824,75.14453 C157.302079,75.5395938 157.529071,76.7054983 157.445565,77.6422912 L160.461106,77.6422912 C160.370817,78.7821266 160.289431,79.8100555 160.198719,80.9543417 M156.014094,61 C144.948281,61.0137927 136.00318,69.968643 136,81.0357283 C135.997034,92.0383825 144.942558,100.990266 155.953478,101.003846 C167.054051,101.017394 175.997244,92.1121391 176,81.0420866 C176.002543,69.9550786 167.058714,60.986028 156.014094,61" id="Facebook"></path>
            </g>
        </g>
    </g>
</svg>