<?xml version="1.0" encoding="UTF-8"?>
<svg width="40px" height="40px" viewBox="0 0 40 40" version="1.1" xmlns="http://www.w3.org/2000/svg" xmlns:xlink="http://www.w3.org/1999/xlink">
    <!-- Generator: Sketch 61.1 (89650) - https://sketch.com -->
    <title>Instagram</title>
    <desc>Created with Sketch.</desc>
    <g id="Page-1" stroke="none" stroke-width="1" fill="none" fill-rule="evenodd">
        <g id="1-Home" transform="translate(-88.000000, -7547.000000)" fill="#FFFFFF">
            <g id="Group-3-Copy" transform="translate(0.000000, 7486.000000)">
                <path d="M110.845006,81.0625708 C110.824027,82.6393377 109.572107,83.8620153 107.989195,83.8516321 C106.427685,83.8412489 105.151608,82.5662313 105.153725,81.0180713 C105.155634,79.4355831 106.514565,78.1088613 108.086247,78.1548441 C109.637373,78.2004032 110.865984,79.4953396 110.845006,81.0625708 M112.690677,77.3691095 C112.13634,77.3691095 111.686895,76.9196642 111.686895,76.3653272 C111.686895,75.8109901 112.13634,75.3615448 112.690677,75.3615448 C113.245014,75.3615448 113.694459,75.8109901 113.694459,76.3653272 C113.694459,76.9196642 113.245014,77.3691095 112.690677,77.3691095 M107.979872,85.4870959 C105.521802,85.467389 103.559796,83.4780479 103.563816,81.0098071 C103.567849,78.5246141 105.515445,76.5717202 107.993645,76.5672634 C110.466124,76.5630322 112.459491,78.5171975 112.48492,80.9706051 C112.51056,83.4483816 110.457224,85.5068029 107.979872,85.4870959 M112.037805,74.0076995 C109.365078,73.869539 106.67434,73.8744128 104.001401,74.0138446 C102.074995,74.1140746 101.08541,75.1318425 100.994292,77.0663008 C100.870117,79.705547 100.865879,82.360262 101.002133,84.9984487 C101.104482,86.9831279 102.256808,87.9610581 104.246573,88.0576857 C105.478786,88.1176541 106.716085,88.0687046 107.951053,88.0687046 L107.951053,88.0729427 C109.186021,88.0729427 110.422896,88.1165946 111.655321,88.0631951 C113.854446,87.9684747 114.995329,86.878448 115.056145,84.6973352 C115.125013,82.2295181 115.117597,79.7568274 115.052119,77.2885865 C114.998719,75.2797504 114.007227,74.1096246 112.037805,74.0076995 M116.569977,85.5544809 C116.412745,87.9068111 114.86628,89.4257285 112.505686,89.5787221 C109.52231,89.772613 106.505877,89.7872342 103.524197,89.5823245 C101.005947,89.4092001 99.5008032,87.5908644 99.3571333,85.039134 C99.2819079,83.7024527 99.3439953,82.358143 99.3439953,81.0174356 L99.3469619,81.0174356 C99.3469619,79.6413405 99.275127,78.2605835 99.3624308,76.8904217 C99.5268672,74.3073297 101.262137,72.4917487 103.829548,72.3838903 C106.611829,72.2669201 109.406823,72.2679796 112.189316,72.3826189 C114.626195,72.4832726 116.400879,74.0394849 116.568494,76.4689475 C116.77637,79.4853802 116.771708,82.5372006 116.569977,85.5544809 M107.994917,61 C96.9973866,60.9727264 87.992588,70.00592 88,81.0581209 C88.0076331,92.0539557 96.9575489,100.989674 107.97521,101.001552 C119.065765,101.013195 128.000848,92.0993029 128,81.0237927 C127.999152,69.9508253 119.084624,61.0278211 107.994917,61" id="Instagram"></path>
            </g>
        </g>
    </g>
</svg>