<?xml version="1.0" encoding="UTF-8"?>
<svg width="40px" height="40px" viewBox="0 0 40 40" version="1.1" xmlns="http://www.w3.org/2000/svg" xmlns:xlink="http://www.w3.org/1999/xlink">
    <!-- Generator: Sketch 61.2 (89653) - https://sketch.com -->
    <title>Facebook</title>
    <desc>Created with Sketch.</desc>
    <g id="Page-1" stroke="none" stroke-width="1" fill="none" fill-rule="evenodd">
        <g id="7-MyFaith-home-page-Copy" transform="translate(-746.000000, -983.000000)" fill="#0172C8">
            <path d="M770.198719,1002.95242 L767.490921,1002.95242 L767.490921,1012.59877 L763.57377,1012.59877 L763.57377,1003.08021 C762.861426,1003.02681 762.277944,1002.98315 761.627911,1002.9342 L761.627911,999.716348 C762.251239,999.681381 762.833661,999.648745 763.548973,999.608479 C763.548973,998.701022 763.529262,997.830863 763.553211,996.961552 C763.6098,994.874951 764.547653,993.728231 766.623858,993.470108 C767.834694,993.319854 769.079442,993.44277 770.401973,993.44277 L770.401973,996.609122 C769.442926,996.767006 768.32259,996.642183 767.751824,997.14317 C767.302079,997.538196 767.529071,998.703989 767.445565,999.640691 L770.461106,999.640691 C770.370817,1000.78042 770.289431,1001.80825 770.198719,1002.95242 M766.014094,983 C754.948281,983.013791 746.00318,991.967781 746,1003.0338 C745.997034,1014.0354 754.942558,1022.98642 765.953478,1023 C777.054051,1023.01355 785.997244,1014.10915 786,1003.04016 C786.002543,991.954218 777.058714,982.986029 766.014094,983" id="Facebook"></path>
        </g>
    </g>
</svg>