<?xml version="1.0" encoding="UTF-8"?>
<svg width="14px" height="13px" viewBox="0 0 14 13" version="1.1" xmlns="http://www.w3.org/2000/svg" xmlns:xlink="http://www.w3.org/1999/xlink">
    <!-- Generator: Sketch 61.2 (89653) - https://sketch.com -->
    <title>0811-cross</title>
    <desc>Created with Sketch.</desc>
    <g id="Page-1" stroke="none" stroke-width="1" fill="none" fill-rule="evenodd">
        <g id="8-Video-Overlay" transform="translate(-1404.000000, -18.000000)" fill="#FFFFFF" fill-rule="nonzero">
            <g id="0811-cross" transform="translate(1404.000000, 18.000000)">
                <path d="M7.707,6.5 L13.353,0.854 C13.548,0.659 13.548,0.342 13.353,0.147 C13.158,-0.048 12.841,-0.048 12.646,0.147 L7,5.793 L1.354,0.147 C1.159,-0.048 0.842,-0.048 0.647,0.147 C0.452,0.342 0.452,0.659 0.647,0.854 L6.293,6.5 L0.647,12.146 C0.452,12.341 0.452,12.658 0.647,12.853 C0.745,12.951 0.873,12.999 1.001,12.999 C1.129,12.999 1.257,12.95 1.355,12.853 L7.001,7.207 L12.647,12.853 C12.745,12.951 12.873,12.999 13.001,12.999 C13.129,12.999 13.257,12.95 13.355,12.853 C13.55,12.658 13.55,12.341 13.355,12.146 L7.709,6.5 L7.707,6.5 Z" id="Path"></path>
            </g>
        </g>
    </g>
</svg>